<svg width="5" height="9" viewBox="0 0 5 9" fill="none" xmlns="http://www.w3.org/2000/svg">
<path d="M1.42516 8.73404L4.75844 5.13757C4.91326 4.96743 5 4.73853 5 4.5001C5 4.26166 4.91326 4.03276 4.75844 3.86262L1.42516 0.266158C1.30786 0.138477 1.15778 0.0516668 0.994302 0.0169372C0.83082 -0.0177924 0.661443 0.00115299 0.50804 0.0713275C0.354637 0.141502 0.224254 0.259683 0.133726 0.41061C0.0431977 0.561537 -0.00331831 0.73828 0.000184256 0.918017L0.000184256 8.10465C0.000875271 8.28247 0.0504202 8.45608 0.142554 8.60352C0.234689 8.75096 0.365275 8.86561 0.517799 8.93298C0.670324 9.00035 0.837937 9.0174 0.999446 8.98199C1.16095 8.94658 1.3091 8.86029 1.42516 8.73404Z" fill="#909090"/>
</svg>
