<svg width="5" height="9" viewBox="0 0 5 9" fill="none" xmlns="http://www.w3.org/2000/svg">
<path d="M3.57484 0.265965L0.241559 3.86243C0.0867398 4.03257 0 4.26147 0 4.4999C0 4.73834 0.0867398 4.96724 0.241559 5.13738L3.57484 8.73384C3.69214 8.86152 3.84222 8.94833 4.0057 8.98306C4.16918 9.01779 4.33856 8.99885 4.49196 8.92867C4.64536 8.8585 4.77575 8.74032 4.86627 8.58939C4.9568 8.43846 5.00332 8.26172 4.99982 8.08198L4.99982 0.895346C4.99912 0.717526 4.94958 0.543919 4.85745 0.396479C4.76531 0.249038 4.63473 0.134386 4.4822 0.0670196C4.32968 -0.000347222 4.16206 -0.0174032 4.00055 0.0180087C3.83905 0.0534205 3.6909 0.13971 3.57484 0.265965Z" fill="#909090"/>
</svg>
