<svg width="80" height="33" viewBox="0 0 80 33" fill="none" xmlns="http://www.w3.org/2000/svg">
<path d="M41.268 8.004V11.029H45.25V11.733H41.268V15H40.454V7.3H45.734V8.004H41.268ZM52.6729 15L50.9129 12.525C50.7149 12.547 50.5096 12.558 50.2969 12.558H48.2289V15H47.4149V7.3H50.2969C51.2796 7.3 52.0496 7.53467 52.6069 8.004C53.1642 8.47333 53.4429 9.11867 53.4429 9.94C53.4429 10.5413 53.2889 11.051 52.9809 11.469C52.6802 11.8797 52.2476 12.1767 51.6829 12.36L53.5639 15H52.6729ZM50.2749 11.865C51.0376 11.865 51.6206 11.6963 52.0239 11.359C52.4272 11.0217 52.6289 10.5487 52.6289 9.94C52.6289 9.31667 52.4272 8.84 52.0239 8.51C51.6206 8.17267 51.0376 8.004 50.2749 8.004H48.2289V11.865H50.2749ZM60.8091 14.296V15H55.3641V7.3H60.6441V8.004H56.1781V10.743H60.1601V11.436H56.1781V14.296H60.8091ZM68.1675 14.296V15H62.7225V7.3H68.0025V8.004H63.5365V10.743H67.5185V11.436H63.5365V14.296H68.1675Z" fill="#E81467"/>
<path d="M48.451 16.9V24.6H47.67V18.44L44.645 23.621H44.26L41.235 18.473V24.6H40.454V16.9H41.125L44.469 22.609L47.78 16.9H48.451ZM54.0618 24.666C53.0645 24.666 52.2871 24.38 51.7298 23.808C51.1725 23.236 50.8938 22.4037 50.8938 21.311V16.9H51.7078V21.278C51.7078 22.1727 51.9095 22.84 52.3128 23.28C52.7161 23.72 53.2991 23.94 54.0618 23.94C54.8318 23.94 55.4185 23.72 55.8218 23.28C56.2251 22.84 56.4268 22.1727 56.4268 21.278V16.9H57.2188V21.311C57.2188 22.4037 56.9401 23.236 56.3828 23.808C55.8328 24.38 55.0591 24.666 54.0618 24.666ZM61.7947 24.666C61.2227 24.666 60.6727 24.5744 60.1447 24.391C59.6241 24.2077 59.2207 23.9657 58.9347 23.665L59.2537 23.038C59.5324 23.3167 59.9027 23.544 60.3647 23.72C60.8267 23.8887 61.3034 23.973 61.7947 23.973C62.4841 23.973 63.0011 23.8484 63.3457 23.599C63.6904 23.3424 63.8627 23.0124 63.8627 22.609C63.8627 22.301 63.7674 22.0554 63.5767 21.872C63.3934 21.6887 63.1661 21.5494 62.8947 21.454C62.6234 21.3514 62.2457 21.2414 61.7617 21.124C61.1824 20.9774 60.7204 20.838 60.3757 20.706C60.0311 20.5667 59.7341 20.3577 59.4847 20.079C59.2427 19.8004 59.1217 19.4227 59.1217 18.946C59.1217 18.5574 59.2244 18.2054 59.4297 17.89C59.6351 17.5674 59.9504 17.3107 60.3757 17.12C60.8011 16.9294 61.3291 16.834 61.9597 16.834C62.3997 16.834 62.8287 16.8964 63.2467 17.021C63.6721 17.1384 64.0387 17.3034 64.3467 17.516L64.0717 18.165C63.7491 17.9524 63.4044 17.7947 63.0377 17.692C62.6711 17.582 62.3117 17.527 61.9597 17.527C61.2851 17.527 60.7754 17.659 60.4307 17.923C60.0934 18.1797 59.9247 18.5134 59.9247 18.924C59.9247 19.232 60.0164 19.4814 60.1997 19.672C60.3904 19.8554 60.6251 19.9984 60.9037 20.101C61.1897 20.1964 61.5711 20.3027 62.0477 20.42C62.6124 20.5594 63.0671 20.6987 63.4117 20.838C63.7637 20.97 64.0607 21.1754 64.3027 21.454C64.5447 21.7254 64.6657 22.0957 64.6657 22.565C64.6657 22.9537 64.5594 23.3094 64.3467 23.632C64.1414 23.9474 63.8224 24.2004 63.3897 24.391C62.9571 24.5744 62.4254 24.666 61.7947 24.666ZM66.4393 16.9H67.2533V24.6H66.4393V16.9ZM73.1026 24.666C72.34 24.666 71.6506 24.4974 71.0346 24.16C70.426 23.8227 69.9456 23.357 69.5936 22.763C69.249 22.1617 69.0766 21.4907 69.0766 20.75C69.0766 20.0094 69.249 19.342 69.5936 18.748C69.9456 18.1467 70.4296 17.6774 71.0456 17.34C71.6616 17.0027 72.351 16.834 73.1136 16.834C73.6856 16.834 74.2136 16.9294 74.6976 17.12C75.1816 17.3107 75.5923 17.5894 75.9296 17.956L75.4126 18.473C74.8113 17.8644 74.0523 17.56 73.1356 17.56C72.527 17.56 71.9733 17.6994 71.4746 17.978C70.976 18.2567 70.5836 18.638 70.2976 19.122C70.019 19.606 69.8796 20.1487 69.8796 20.75C69.8796 21.3514 70.019 21.894 70.2976 22.378C70.5836 22.862 70.976 23.2434 71.4746 23.522C71.9733 23.8007 72.527 23.94 73.1356 23.94C74.0596 23.94 74.8186 23.632 75.4126 23.016L75.9296 23.533C75.5923 23.8997 75.178 24.182 74.6866 24.38C74.2026 24.5707 73.6746 24.666 73.1026 24.666Z" fill="#3D3D6B"/>
<path d="M17.1184 22.0045C17.0965 22.0128 17.0748 22.0218 17.0529 22.0302C16.9015 22.0871 16.7485 22.1397 16.5955 22.1919C14.9486 22.7636 13.1895 23.0775 11.3596 23.0775C10.1595 23.0775 8.98898 22.9435 7.86121 22.6899C2.55618 21.266 5.89729 14.5851 5.89729 14.5851L5.87299 14.5907L2.57113 20.4465L0.718577 23.7319C-0.733931 26.3082 0.0851216 29.6288 2.54843 31.1476C3.16239 31.5264 3.82014 31.7571 4.48457 31.8509C4.48377 31.8526 4.48324 31.8543 4.48244 31.8562C6.71021 32.1749 9.02557 32.1168 11.3545 31.6303C22.0033 29.4045 29.099 19.0179 27.8927 7.93529C27.0947 14.4469 22.8419 19.827 17.1184 22.0045Z" fill="url(#paint0_linear_3_30)"/>
<path d="M33.2226 23.7317L25.0176 9.18074C24.9674 9.25476 24.9169 9.32766 24.8667 9.40223C23.7921 10.9965 22.7693 12.6304 21.6001 14.1523C20.6256 15.4198 19.4351 16.9919 18.0405 18.1298L24.3019 29.2339C25.7541 31.8105 28.9291 32.6671 31.3924 31.1477C33.8557 29.6286 34.6753 26.3083 33.2226 23.7317Z" fill="#3D3D6B"/>
<path d="M31.3926 31.1475C33.8559 29.6286 34.6755 26.308 33.2227 23.7315L21.4568 2.86527C20.0038 0.289005 16.8293 -0.567886 14.3658 0.951506C11.9027 2.47062 11.0834 5.79066 12.5359 8.3672L24.3018 29.2337C25.7543 31.8102 28.929 32.6668 31.3926 31.1475Z" fill="#3D3D6B"/>
<path d="M17.053 22.0302C17.0749 22.0218 17.0965 22.0128 17.1184 22.0044C17.0965 22.0126 17.0749 22.0218 17.053 22.0302Z" fill="url(#paint1_linear_3_30)"/>
<path d="M17.053 22.0302C17.0749 22.0218 17.0965 22.0128 17.1184 22.0044C17.0965 22.0126 17.0749 22.0218 17.053 22.0302Z" fill="url(#paint2_linear_3_30)"/>
<path d="M12.4845 2.86574L2.57117 20.4466C5.12127 22.1118 8.13177 23.0776 11.3597 23.0776C13.1895 23.0776 14.9486 22.7636 16.5955 22.1919C16.1258 22.3522 15.6483 22.4933 15.1614 22.61L15.1633 22.6044C13.3172 23.0832 14.8033 20.11 15.3564 19.0953L21.4049 8.36767C22.8577 5.79085 22.0386 2.47109 19.575 0.951696C18.7493 0.442532 17.8435 0.200102 16.9496 0.200102C15.1767 0.200102 13.4499 1.15279 12.4845 2.86574Z" fill="url(#paint3_linear_3_30)"/>
<path d="M16.9336 0.206219C16.677 0.206499 16.4222 0.228844 16.1698 0.269064C16.1276 0.275208 16.0854 0.281914 16.0438 0.289734C15.961 0.305096 15.879 0.321012 15.7973 0.340563C15.7567 0.35006 15.7172 0.36207 15.6769 0.372404C15.5433 0.407595 15.4114 0.448093 15.2808 0.494457C15.2245 0.514008 15.1689 0.534676 15.1139 0.555902C15.0471 0.582716 14.9812 0.608694 14.9155 0.6383C14.8279 0.676844 14.7414 0.719017 14.6556 0.762867C14.5891 0.796942 14.524 0.832968 14.4588 0.870115C14.3851 0.912291 14.3122 0.955862 14.2398 1.00167C14.1926 1.03211 14.145 1.06283 14.0983 1.09495C13.992 1.16757 13.8876 1.24354 13.7861 1.32482C13.7607 1.34549 13.7362 1.36839 13.7103 1.38961C13.6243 1.46139 13.5404 1.53625 13.4584 1.61417C13.4264 1.64517 13.3941 1.67618 13.3623 1.70774C13.2627 1.80773 13.1647 1.91107 13.0717 2.02055C13.0629 2.03117 13.0547 2.04234 13.0464 2.05295C12.959 2.15713 12.8763 2.26634 12.7964 2.3789C12.7732 2.41129 12.7507 2.4437 12.7283 2.47637C12.6431 2.60178 12.5603 2.73054 12.4845 2.86572L4.34254 17.305L2.57117 20.4465C3.238 20.8817 3.93796 21.2666 4.66354 21.6012V21.6014C4.66461 21.6017 4.66567 21.6023 4.66621 21.6028C4.91938 21.7193 5.17548 21.8294 5.43533 21.9333L5.44708 21.938C5.71013 22.043 5.97611 22.1411 6.24504 22.2321C6.2453 22.2321 6.24557 22.2324 6.24584 22.2324C7.09747 22.5206 7.97768 22.7415 8.883 22.8834H8.88327C9.16581 22.9278 9.45129 22.9641 9.73837 22.9932C9.76027 22.9954 9.78217 22.9974 9.80407 22.9993C10.0842 23.0267 10.366 23.0477 10.6504 23.0602C10.653 23.0602 10.6554 23.0608 10.6581 23.0608C10.6576 23.0608 10.657 23.0605 10.6562 23.0605C10.8896 23.0708 11.1241 23.0775 11.3597 23.0775C12.2214 23.0775 13.0667 23.0055 13.8929 22.872C14.0724 23.0636 14.2583 23.2161 14.4361 23.2965C15.2106 23.6468 15.1895 23.4499 15.6499 23.4384C16.1103 23.4278 17.2821 22.8041 17.4285 22.7164C17.5751 22.6287 17.7903 21.7255 17.7903 21.7255C17.5625 21.8294 17.3107 21.8872 17.0458 21.8872C16.0182 21.8872 15.1847 21.0152 15.1847 19.9407C15.1847 19.5776 15.2795 19.238 15.4448 18.9473H15.4397L18.1872 14.0746C18.7125 13.18 19.2073 12.4365 19.8229 11.6991C23.6321 7.48366 27.65 13.8565 27.65 13.8565L27.6513 13.8514L21.4567 2.86572C21.3648 2.70233 21.2636 2.54871 21.1581 2.399C21.1395 2.37331 21.1202 2.34761 21.1015 2.32164C21.0284 2.22165 20.9522 2.12473 20.8732 2.03145C20.8438 1.99625 20.8147 1.96078 20.7843 1.92671C20.784 1.92643 20.784 1.92615 20.7835 1.92615C20.7124 1.84655 20.639 1.77058 20.5642 1.69629C20.5631 1.69489 20.5618 1.69321 20.5605 1.6921C20.5332 1.66529 20.5065 1.63791 20.4796 1.6111C20.3669 1.50385 20.2504 1.40191 20.13 1.30639L20.1297 1.3061C20.1161 1.29549 20.1019 1.286 20.0883 1.27566C19.9332 1.15528 19.7727 1.0458 19.6074 0.945251C19.5913 0.935196 19.5753 0.924303 19.559 0.914528C19.5588 0.914528 19.5585 0.914246 19.5585 0.914246C19.5043 0.882406 19.4493 0.852522 19.3945 0.822357C19.3937 0.822079 19.3932 0.82152 19.3924 0.821241C19.3168 0.780184 19.2423 0.738008 19.1646 0.701139C19.1643 0.701139 19.164 0.700583 19.164 0.700583C18.4849 0.374081 17.7436 0.205662 16.994 0.205662C16.9737 0.205662 16.9536 0.20594 16.9336 0.206219Z" fill="url(#paint4_linear_3_30)"/>
<path d="M5.87299 14.5907L2.57113 20.4465L0.718577 23.7319C-0.733931 26.3082 0.0851216 29.6288 2.54843 31.1476C3.16239 31.5264 3.82014 31.7571 4.48457 31.8509C4.48377 31.8526 4.48324 31.8543 4.48244 31.8562C6.7102 32.1749 9.02557 32.1168 11.3545 31.6303C15.0041 30.8675 18.236 29.1462 20.8598 26.7668L18.5987 21.3543C18.1177 21.595 17.6239 21.812 17.1184 22.0045C17.0965 22.0129 17.0748 22.0218 17.0529 22.0302C16.9015 22.0871 16.7485 22.1397 16.5955 22.1919C14.9486 22.7636 13.1895 23.0775 11.3596 23.0775C10.1595 23.0775 8.98898 22.9435 7.86121 22.6899C2.55618 21.266 5.89729 14.5852 5.89729 14.5852L5.87299 14.5907Z" fill="url(#paint5_linear_3_30)"/>
<defs>
<linearGradient id="paint0_linear_3_30" x1="-11.3011" y1="19.995" x2="23.9206" y2="19.995" gradientUnits="userSpaceOnUse">
<stop stop-color="#1B75B7"/>
<stop offset="0.166667" stop-color="#1B75B7"/>
<stop offset="0.584615" stop-color="#1B75B7"/>
<stop offset="1" stop-color="#18DBB7"/>
</linearGradient>
<linearGradient id="paint1_linear_3_30" x1="0.000176626" y1="22.0172" x2="28.0261" y2="22.0172" gradientUnits="userSpaceOnUse">
<stop stop-color="#1B75B7"/>
<stop offset="0.166667" stop-color="#1B75B7"/>
<stop offset="0.584615" stop-color="#1B75B7"/>
<stop offset="1" stop-color="#18DBB7"/>
</linearGradient>
<linearGradient id="paint2_linear_3_30" x1="-5.25711" y1="22.0172" x2="27.9766" y2="22.0172" gradientUnits="userSpaceOnUse">
<stop stop-color="#1B75B7"/>
<stop offset="0.166667" stop-color="#1B75B7"/>
<stop offset="0.584615" stop-color="#1B75B7"/>
<stop offset="1" stop-color="#18DBB7"/>
</linearGradient>
<linearGradient id="paint3_linear_3_30" x1="-0.000178352" y1="11.6389" x2="28.0261" y2="11.6389" gradientUnits="userSpaceOnUse">
<stop stop-color="#1B75B7"/>
<stop offset="0.166667" stop-color="#1B75B7"/>
<stop offset="0.584615" stop-color="#1B75B7"/>
<stop offset="1" stop-color="#18DBB7"/>
</linearGradient>
<linearGradient id="paint4_linear_3_30" x1="9.35924" y1="27.8615" x2="29.0457" y2="-5.65437" gradientUnits="userSpaceOnUse">
<stop stop-color="#1B75BB"/>
<stop offset="0.631544" stop-color="#A30054"/>
<stop offset="0.990444" stop-color="#A30054"/>
<stop offset="1" stop-color="#A30054"/>
</linearGradient>
<linearGradient id="paint5_linear_3_30" x1="-11.3011" y1="19.995" x2="23.9205" y2="19.995" gradientUnits="userSpaceOnUse">
<stop stop-color="#1B75B7"/>
<stop offset="0.166667" stop-color="#1B75B7"/>
<stop offset="0.584615" stop-color="#1B75B7"/>
<stop offset="1" stop-color="#18DBB7"/>
</linearGradient>
</defs>
</svg>
