<svg width="24" height="24" viewBox="0 0 24 24" fill="none" xmlns="http://www.w3.org/2000/svg">
<path d="M7.55 17.8001C7.90574 17.9681 8.30153 18.0328 8.69227 17.9868C9.083 17.9409 9.45297 17.7861 9.76 17.5401L14.86 13.3301L15 13.1801V17.0001C15 17.2653 15.1054 17.5196 15.2929 17.7072C15.4804 17.8947 15.7348 18.0001 16 18.0001C16.2652 18.0001 16.5196 17.8947 16.7071 17.7072C16.8946 17.5196 17 17.2653 17 17.0001V7.00005C17 6.73484 16.8946 6.48048 16.7071 6.29294C16.5196 6.10541 16.2652 6.00005 16 6.00005C15.7348 6.00005 15.4804 6.10541 15.2929 6.29294C15.1054 6.48048 15 6.73484 15 7.00005L15 10.8201L14.86 10.6701L9.76 6.46005C9.39238 6.16193 8.93331 5.99949 8.46 6.00005C8.14597 6.0019 7.83587 6.07006 7.55 6.20005C7.24083 6.33633 6.97741 6.55872 6.79122 6.84067C6.60503 7.12262 6.50393 7.4522 6.5 7.79005L6.5 16.2101C6.50393 16.5479 6.60503 16.8775 6.79122 17.1594C6.97741 17.4414 7.24083 17.6638 7.55 17.8001Z" fill="#909090"/>
</svg>
