<svg width="45" height="45" viewBox="0 0 45 45" fill="none" xmlns="http://www.w3.org/2000/svg">
<line x1="29" y1="14" x2="29" y2="31" stroke="#909090" stroke-width="6" stroke-linecap="round"/>
<line x1="16" y1="14" x2="16" y2="31" stroke="#909090" stroke-width="6" stroke-linecap="round"/>
<path d="M22.5 0C10.0935 0 0 10.0935 0 22.5C0 34.9065 10.0935 45 22.5 45C34.9065 45 45 34.9065 45 22.5C45 10.0935 34.9065 0 22.5 0ZM22.5 40.9091C12.3491 40.9091 4.09091 32.6508 4.09091 22.5C4.09091 12.3492 12.3491 4.09091 22.5 4.09091C32.6509 4.09091 40.9091 12.3492 40.9091 22.5C40.9091 32.6508 32.6508 40.9091 22.5 40.9091Z" fill="#565C67"/>
</svg>
