<svg width="45" height="45" viewBox="0 0 45 45" fill="none" xmlns="http://www.w3.org/2000/svg">
<path d="M32.3114 20.7655L17.5841 11.5608C16.9536 11.1668 16.1587 11.1458 15.5084 11.5063C14.8581 11.8668 14.4546 12.5518 14.4546 13.2954V31.7045C14.4546 32.4481 14.8581 33.133 15.5084 33.4936C15.8174 33.6649 16.1589 33.75 16.4999 33.75C16.8767 33.75 17.253 33.6459 17.584 33.439L32.3113 24.2346C32.9094 23.8609 33.2726 23.2054 33.2726 22.5001C33.2728 21.7948 32.9095 21.1393 32.3114 20.7655Z" fill="#909090"/>
<path d="M22.5 0C10.0935 0 0 10.0935 0 22.5C0 34.9065 10.0935 45 22.5 45C34.9065 45 45 34.9065 45 22.5C45 10.0935 34.9065 0 22.5 0ZM22.5 40.9091C12.3491 40.9091 4.09091 32.6508 4.09091 22.5C4.09091 12.3492 12.3491 4.09091 22.5 4.09091C32.6509 4.09091 40.9091 12.3492 40.9091 22.5C40.9091 32.6508 32.6508 40.9091 22.5 40.9091Z" fill="#565C67"/>
</svg>
