<svg width="35" height="35" viewBox="0 0 35 35" fill="none" xmlns="http://www.w3.org/2000/svg">
<path d="M17.5 0C7.83498 0 0 7.83557 0 17.5C0 27.1648 7.83498 35 17.5 35C27.165 35 35 27.1648 35 17.5C35 7.83557 27.165 0 17.5 0ZM24.0154 18.4644L13.9171 24.2943C13.7631 24.3836 13.5905 24.4278 13.4186 24.4278C13.2468 24.4278 13.0746 24.3836 12.92 24.2943C12.612 24.1164 12.422 23.7872 12.422 23.4308V11.7705C12.422 11.4143 12.6122 11.0845 12.92 10.9069C13.2289 10.7287 13.609 10.7287 13.9176 10.9069L24.0159 16.7372C24.3245 16.9157 24.5146 17.245 24.514 17.6008C24.514 17.9569 24.3243 18.2865 24.0154 18.4644Z" fill="#565C67"/>
</svg>
