<svg width="24" height="24" viewBox="0 0 24 24" fill="none" xmlns="http://www.w3.org/2000/svg">
<path d="M16.45 6.19995C16.0943 6.03191 15.6985 5.9672 15.3077 6.01316C14.917 6.05913 14.547 6.21394 14.24 6.45995L9.14 10.6699L9 10.8199V6.99995C9 6.73473 8.89464 6.48038 8.70711 6.29284C8.51957 6.1053 8.26522 5.99995 8 5.99995C7.73478 5.99995 7.48043 6.1053 7.29289 6.29284C7.10536 6.48038 7 6.73473 7 6.99995V16.9999C7 17.2652 7.10536 17.5195 7.29289 17.7071C7.48043 17.8946 7.73478 17.9999 8 17.9999C8.26522 17.9999 8.51957 17.8946 8.70711 17.7071C8.89464 17.5195 9 17.2652 9 16.9999V13.1799L9.14 13.3299L14.24 17.5399C14.6076 17.8381 15.0667 18.0005 15.54 17.9999C15.854 17.9981 16.1641 17.9299 16.45 17.7999C16.7592 17.6637 17.0226 17.4413 17.2088 17.1593C17.395 16.8774 17.4961 16.5478 17.5 16.2099V7.78995C17.4961 7.45209 17.395 7.12251 17.2088 6.84057C17.0226 6.55862 16.7592 6.33623 16.45 6.19995Z" fill="#909090"/>
</svg>
