<svg width="15" height="15" viewBox="0 0 15 15" fill="none" xmlns="http://www.w3.org/2000/svg">
<path d="M10.6667 2.75725C12.5372 3.48164 13.8553 5.24219 13.8553 7.29841C13.8553 9.355 12.5372 11.1144 10.6667 11.8392V12.8607C13.1014 12.0961 14.8572 9.89336 14.8572 7.29841C14.8572 4.70383 13.1014 2.50141 10.6667 1.73279V2.75725ZM10.6667 5.16909C11.2919 5.6815 11.6877 6.4461 11.6877 7.29878C11.6877 8.15182 11.2919 8.91569 10.6667 9.4281V10.4675C11.8058 9.83488 12.5715 8.65254 12.5715 7.29878C12.5715 5.94538 11.8058 4.7634 10.6667 4.13001V5.16909ZM1.90482 10.2256H4.95244L8.38101 14.2514C8.76196 14.7777 9.65339 14.7379 9.90482 14.141V0.485754C9.59587 -0.110719 8.7852 -0.158598 8.38101 0.346138L4.95244 4.38585H1.90482C0.929201 4.38585 0.761963 4.55434 0.761963 5.46915V9.1284C0.761963 10.0209 0.952439 10.2256 1.90482 10.2256Z" fill="#909090"/>
</svg>
